<?xml version="1.0" encoding="iso-8859-1"?>
<!-- Generator: Adobe Illustrator 19.0.0, SVG Export Plug-In . SVG Version: 6.00 Build 0)  -->
<svg version="1.1" id="Capa_1" xmlns="http://www.w3.org/2000/svg" xmlns:xlink="http://www.w3.org/1999/xlink" x="0px" y="0px"
	 viewBox="0 0 512 512" style="enable-background:new 0 0 512 512;" xml:space="preserve">
<path style="fill:#FFE17D;" d="M341.838,302.792l-85.081-161.654l-85.081,161.654L35.548,158.155l83.25,274.726
	c1.087,3.587,4.394,6.041,8.142,6.041h259.635c3.748,0,7.055-2.453,8.142-6.041l83.25-274.726L341.838,302.792z"/>
<g>
	<path style="fill:#FFD164;" d="M171.677,302.792L35.548,158.155l83.25,274.726c1.087,3.587,4.394,6.041,8.143,6.041h66.231
		L171.677,302.792z"/>
	<path style="fill:#FFD164;" d="M110.316,404.889l8.482,27.991c1.087,3.587,4.394,6.041,8.143,6.041h259.634
		c3.749,0,7.056-2.454,8.142-6.041l8.483-27.991H110.316z"/>
</g>
<path style="fill:#FFC350;" d="M110.316,404.889l8.482,27.991c1.087,3.587,4.394,6.041,8.143,6.041h66.231l-5.374-34.032
	L110.316,404.889L110.316,404.889z"/>
<circle style="fill:#FFE17D;" cx="256.76" cy="94.348" r="21.27"/>
<path style="fill:#FFD164;" d="M267.393,104.98c-11.747,0-21.27-9.523-21.27-21.27c0-3.119,0.688-6.072,1.894-8.741
	c-7.383,3.336-12.529,10.748-12.529,19.376c0,11.747,9.523,21.27,21.27,21.27c8.628,0,16.04-5.147,19.376-12.529
	C273.465,104.292,270.512,104.98,267.393,104.98z"/>
<circle style="fill:#FFE17D;" cx="17.02" cy="124.118" r="17.02"/>
<path style="fill:#FFD164;" d="M25.524,132.631c-9.398,0-17.016-7.618-17.016-17.016c0-2.495,0.55-4.858,1.515-6.993
	C4.117,111.291,0,117.22,0,124.123c0,9.398,7.618,17.016,17.016,17.016c6.902,0,12.832-4.117,15.501-10.023
	C30.382,132.081,28.019,132.631,25.524,132.631z"/>
<circle style="fill:#FFE17D;" cx="494.98" cy="124.118" r="17.02"/>
<path style="fill:#FFD164;" d="M503.492,132.631c-9.398,0-17.016-7.618-17.016-17.016c0-2.495,0.55-4.858,1.515-6.993
	c-5.906,2.669-10.023,8.599-10.023,15.501c0,9.398,7.618,17.016,17.016,17.016c6.902,0,12.832-4.117,15.501-10.023
	C508.35,132.081,505.987,132.631,503.492,132.631z"/>
<g>
</g>
<g>
</g>
<g>
</g>
<g>
</g>
<g>
</g>
<g>
</g>
<g>
</g>
<g>
</g>
<g>
</g>
<g>
</g>
<g>
</g>
<g>
</g>
<g>
</g>
<g>
</g>
<g>
</g>
</svg>
