<svg height="512" viewBox="0 0 152 152" width="512" xmlns="http://www.w3.org/2000/svg"><g id="Layer_2" data-name="Layer 2"><g id="Color"><g id="_05.Like" data-name="05.Like"><circle id="Background" cx="76" cy="76" fill="#4a6ea9" r="76"/><path d="m56.57 110.74a4.88 4.88 0 0 1 -4.87 4.84h-13.34a4.87 4.87 0 0 1 -4.86-4.84v-38a4.88 4.88 0 0 1 4.86-4.85h13.34a4.88 4.88 0 0 1 4.87 4.85zm56.79-29.81a6.63 6.63 0 0 1 -2.66 11.63 6.62 6.62 0 0 1 -2.64 11.63 6.64 6.64 0 0 1 -4.13 11.81l-37.62-.42a4.86 4.86 0 0 1 -4.84-4.84v-38c0-6 19.19-17.08 20.22-23 .64-3.92-.21-13.74 2.43-13.74 4.48 0 10.23 1.72 10.23 11.67 0 8.78-5.75 20.17-5.75 20.17h23.27a6.63 6.63 0 0 1 1.49 13.09z" fill="#fff"/></g></g></g></svg>