<svg xmlns="http://www.w3.org/2000/svg" viewBox="0 0 907.09 907.09"><defs><style>.cls-1{fill:#ffd438;}.cls-2{fill:#28a890;}.cls-3{fill:#f26439;}.cls-4{fill:#7668ae;}.cls-5{fill:#fff;}</style></defs><g id="Layer_4" data-name="Layer 4"><path class="cls-1" d="M453.57,604.72H302.36c-111.87,0-209.56-60.79-261.83-151.15A300.4,300.4,0,0,1,0,302.36C0,135.4,135.4,0,302.36,0V453.57A151.25,151.25,0,0,0,453.57,604.72Z"/><path class="cls-2" d="M907.09,302.36H453.57a149.87,149.87,0,0,0-62.11,13.37,151.42,151.42,0,0,0-75.73,75.73,149.87,149.87,0,0,0-13.37,62.11V302.36c0-111.87,60.8-209.62,151.21-261.89A301,301,0,0,1,604.72,0C771.69,0,907.09,135.4,907.09,302.36Z"/><path class="cls-3" d="M907.09,604.72c0,167-135.4,302.37-302.37,302.37V453.57A151.27,151.27,0,0,0,453.57,302.36H604.72c111.88,0,209.63,60.8,261.9,151.21A301.13,301.13,0,0,1,907.09,604.72Z"/><path class="cls-4" d="M604.72,453.57V604.72A302.23,302.23,0,0,1,302.36,907.09C135.4,907.09,0,771.69,0,604.72H453.57A151.24,151.24,0,0,0,604.72,453.57Z"/><circle cx="453.61" cy="453.57" r="88.87"/><circle class="cls-5" cx="514.21" cy="406.45" r="47.13"/></g></svg>