<svg height="512" viewBox="0 0 48 48" width="512" xmlns="http://www.w3.org/2000/svg"><g id="_11-wow" data-name="11-wow"><circle cx="24" cy="24" fill="#ffce52" r="23"/><ellipse cx="33" cy="18" fill="#273941" rx="3" ry="4"/><ellipse cx="15" cy="18" fill="#273941" rx="3" ry="4"/><ellipse cx="33" cy="18" fill="#141e21" rx="2" ry="3"/><ellipse cx="15" cy="18" fill="#141e21" rx="2" ry="3"/><circle cx="34" cy="17" fill="#f6fafd" r="1"/><circle cx="16" cy="17" fill="#f6fafd" r="1"/><path d="m37 10h-2a2 2 0 0 0 -4 0h-2a4 4 0 0 1 8 0z" fill="#273941"/><path d="m19 10h-2a2 2 0 0 0 -4 0h-2a4 4 0 0 1 8 0z" fill="#273941"/><path d="m24 4c12.15 0 22 8.507 22 19h.975a23 23 0 0 0 -45.95 0h.975c0-10.493 9.85-19 22-19z" fill="#ffe369"/><path d="m46 23c0 10.493-9.85 19-22 19s-22-8.507-22-19h-.975c-.014.332-.025.665-.025 1a23 23 0 0 0 46 0c0-.335-.011-.668-.025-1z" fill="#ffb32b"/><g fill="#f6fafd"><ellipse cx="34" cy="5" rx=".825" ry="1.148" transform="matrix(.707 -.707 .707 .707 6.43 25.516)"/><ellipse cx="26.746" cy="3.5" rx=".413" ry=".574" transform="matrix(.707 -.707 .707 .707 5.364 19.945)"/><ellipse cx="30" cy="4" rx="1.65" ry="2.297" transform="matrix(.707 -.707 .707 .707 5.965 22.393)"/></g><ellipse cx="24" cy="34" fill="#273941" rx="6" ry="9"/><path d="m24 43c2.542 0 4.71-2.375 5.584-5.723a7.985 7.985 0 0 0 -11.168 0c.874 3.348 3.042 5.723 5.584 5.723z" fill="#ae2d4c"/><path d="m24 43c-3.088 0-5.629-3.5-5.961-8-.024.329-.039.662-.039 1 0 4.971 2.686 9 6 9s6-4.029 6-9c0-.338-.015-.671-.039-1-.332 4.5-2.873 8-5.961 8z" fill="#ffb32b"/><path d="m24 27c3.088 0 5.629 3.5 5.961 8 .024-.329.039-.662.039-1 0-4.971-2.686-9-6-9s-6 4.029-6 9c0 .338.015.671.039 1 .332-4.5 2.873-8 5.961-8z" fill="#141e21"/><path d="m24 41c-2.132 0-3.989-1.682-5.052-4.2-.184.15-.362.307-.532.473.874 3.352 3.042 5.727 5.584 5.727s4.71-2.375 5.584-5.723c-.17-.166-.348-.323-.532-.473-1.063 2.514-2.92 4.196-5.052 4.196z" fill="#8a293d"/></g></svg>